<mxfile host="Electron" agent="Mozilla/5.0 (Windows NT 10.0; Win64; x64) AppleWebKit/537.36 (KHTML, like Gecko) draw.io/26.0.4 Chrome/128.0.6613.186 Electron/32.2.5 Safari/537.36" version="26.0.4">
  <diagram name="Page-1" id="uM7Y1zoAB-h2gqRwppd1">
    <mxGraphModel dx="2150" dy="1195" grid="1" gridSize="10" guides="1" tooltips="1" connect="1" arrows="1" fold="1" page="1" pageScale="1" pageWidth="850" pageHeight="1100" math="0" shadow="0">
      <root>
        <mxCell id="0" />
        <mxCell id="1" parent="0" />
        <mxCell id="wYKvCjzW0CozcTWjeoE8-3" value="" style="edgeStyle=orthogonalEdgeStyle;rounded=0;orthogonalLoop=1;jettySize=auto;html=1;" edge="1" parent="1" source="wYKvCjzW0CozcTWjeoE8-4">
          <mxGeometry relative="1" as="geometry">
            <mxPoint x="450" y="220" as="targetPoint" />
          </mxGeometry>
        </mxCell>
        <mxCell id="wYKvCjzW0CozcTWjeoE8-1" value="Start" style="rounded=1;whiteSpace=wrap;html=1;" vertex="1" parent="1">
          <mxGeometry x="390" y="80" width="120" height="60" as="geometry" />
        </mxCell>
        <mxCell id="wYKvCjzW0CozcTWjeoE8-5" value="" style="edgeStyle=orthogonalEdgeStyle;rounded=0;orthogonalLoop=1;jettySize=auto;html=1;" edge="1" parent="1" source="wYKvCjzW0CozcTWjeoE8-1" target="wYKvCjzW0CozcTWjeoE8-4">
          <mxGeometry relative="1" as="geometry">
            <mxPoint x="450" y="140" as="sourcePoint" />
            <mxPoint x="450" y="220" as="targetPoint" />
          </mxGeometry>
        </mxCell>
        <mxCell id="wYKvCjzW0CozcTWjeoE8-7" value="" style="edgeStyle=orthogonalEdgeStyle;rounded=0;orthogonalLoop=1;jettySize=auto;html=1;" edge="1" parent="1" source="wYKvCjzW0CozcTWjeoE8-4" target="wYKvCjzW0CozcTWjeoE8-6">
          <mxGeometry relative="1" as="geometry" />
        </mxCell>
        <mxCell id="wYKvCjzW0CozcTWjeoE8-4" value="Declare Bite counts&lt;br&gt;and set to 0" style="rounded=0;whiteSpace=wrap;html=1;" vertex="1" parent="1">
          <mxGeometry x="390" y="220" width="120" height="60" as="geometry" />
        </mxCell>
        <mxCell id="wYKvCjzW0CozcTWjeoE8-11" value="" style="edgeStyle=orthogonalEdgeStyle;rounded=0;orthogonalLoop=1;jettySize=auto;html=1;" edge="1" parent="1" source="wYKvCjzW0CozcTWjeoE8-6" target="wYKvCjzW0CozcTWjeoE8-10">
          <mxGeometry relative="1" as="geometry" />
        </mxCell>
        <mxCell id="wYKvCjzW0CozcTWjeoE8-6" value="Take a bit" style="whiteSpace=wrap;html=1;rounded=0;" vertex="1" parent="1">
          <mxGeometry x="390" y="360" width="120" height="60" as="geometry" />
        </mxCell>
        <mxCell id="wYKvCjzW0CozcTWjeoE8-13" value="" style="edgeStyle=orthogonalEdgeStyle;rounded=0;orthogonalLoop=1;jettySize=auto;html=1;" edge="1" parent="1" source="wYKvCjzW0CozcTWjeoE8-10" target="wYKvCjzW0CozcTWjeoE8-12">
          <mxGeometry relative="1" as="geometry" />
        </mxCell>
        <mxCell id="wYKvCjzW0CozcTWjeoE8-10" value="add 1 to bite count" style="whiteSpace=wrap;html=1;rounded=0;" vertex="1" parent="1">
          <mxGeometry x="390" y="500" width="120" height="60" as="geometry" />
        </mxCell>
        <mxCell id="wYKvCjzW0CozcTWjeoE8-15" value="" style="edgeStyle=orthogonalEdgeStyle;rounded=0;orthogonalLoop=1;jettySize=auto;html=1;entryX=0;entryY=0.5;entryDx=0;entryDy=0;" edge="1" parent="1" source="wYKvCjzW0CozcTWjeoE8-12" target="wYKvCjzW0CozcTWjeoE8-6">
          <mxGeometry relative="1" as="geometry">
            <mxPoint x="450" y="830" as="targetPoint" />
            <Array as="points">
              <mxPoint x="260" y="680" />
              <mxPoint x="260" y="390" />
            </Array>
          </mxGeometry>
        </mxCell>
        <mxCell id="wYKvCjzW0CozcTWjeoE8-16" value="No" style="edgeLabel;html=1;align=center;verticalAlign=middle;resizable=0;points=[];" vertex="1" connectable="0" parent="wYKvCjzW0CozcTWjeoE8-15">
          <mxGeometry x="-0.2503" y="-1" relative="1" as="geometry">
            <mxPoint x="59" y="97" as="offset" />
          </mxGeometry>
        </mxCell>
        <mxCell id="wYKvCjzW0CozcTWjeoE8-19" value="" style="edgeStyle=orthogonalEdgeStyle;rounded=0;orthogonalLoop=1;jettySize=auto;html=1;" edge="1" parent="1" source="wYKvCjzW0CozcTWjeoE8-12" target="wYKvCjzW0CozcTWjeoE8-18">
          <mxGeometry relative="1" as="geometry" />
        </mxCell>
        <mxCell id="wYKvCjzW0CozcTWjeoE8-20" value="Yes" style="edgeLabel;html=1;align=center;verticalAlign=middle;resizable=0;points=[];" vertex="1" connectable="0" parent="wYKvCjzW0CozcTWjeoE8-19">
          <mxGeometry x="-0.5429" y="1" relative="1" as="geometry">
            <mxPoint as="offset" />
          </mxGeometry>
        </mxCell>
        <mxCell id="wYKvCjzW0CozcTWjeoE8-12" value="is the bite count greater or equal to 8?" style="rhombus;whiteSpace=wrap;html=1;rounded=0;" vertex="1" parent="1">
          <mxGeometry x="356" y="630" width="188" height="100" as="geometry" />
        </mxCell>
        <mxCell id="wYKvCjzW0CozcTWjeoE8-18" value="Yell : Im full!" style="whiteSpace=wrap;html=1;rounded=0;" vertex="1" parent="1">
          <mxGeometry x="390" y="830" width="120" height="60" as="geometry" />
        </mxCell>
      </root>
    </mxGraphModel>
  </diagram>
</mxfile>
